<svg xmlns="http://www.w3.org/2000/svg" viewBox="0 0 64 64">
  <rect width="64" height="64" rx="12" fill="#071f44"/>
  <path d="M32 6 56 20v28L32 62 8 48V20Z" fill="none" stroke="#12aeb2" stroke-width="5" stroke-linejoin="round"/>
  <circle cx="32" cy="33" r="19" fill="none" stroke="#fff" stroke-width="4"/>
  <path d="M21 29c4-6 14-8 20-1M19 35c2-10 15-15 24-6M21 40c1-7 5-13 12-13 4 0 7 2 9 5M26 45c-2-8 2-14 8-14 4 0 7 3 7 7M32 48c-2-6 0-12 3-12 2 0 3 2 3 4" fill="none" stroke="#fff" stroke-width="3" stroke-linecap="round"/>
  <path d="M32 33V23M32 33l9-4" fill="none" stroke="#12aeb2" stroke-width="3" stroke-linecap="round"/>
  <circle cx="32" cy="33" r="3" fill="#12aeb2"/>
</svg>
